<?xml version="1.0" encoding="UTF-8" standalone="no"?>
<!DOCTYPE svg PUBLIC "-//W3C//DTD SVG 1.1//EN"
 "http://www.w3.org/Graphics/SVG/1.1/DTD/svg11.dtd">
<!-- Generated by graphviz version 2.36.0 (20140111.2315)
 -->
<!-- Title: models_diagram Pages: 1 -->
<svg width="1249pt" height="438pt"
 viewBox="0.00 0.00 1249.00 438.00" xmlns="http://www.w3.org/2000/svg" xmlns:xlink="http://www.w3.org/1999/xlink">
<g id="graph0" class="graph" transform="scale(1 1) rotate(0) translate(4 434)">
<title>models_diagram</title>
<polygon fill="none" stroke="none" points="-4,4 -4,-434 1245,-434 1245,4 -4,4"/>
<!-- _diagram_info -->
<g id="node1" class="node"><title>_diagram_info</title>
<text text-anchor="start" x="8" y="-333.6" font-family="Times,serif" font-size="13.00">Models diagram</text>
<text text-anchor="start" x="8" y="-319.6" font-family="Times,serif" font-size="13.00">Date: Aug 13 2017 &#45; 20:36</text>
<text text-anchor="start" x="8" y="-305.6" font-family="Times,serif" font-size="13.00">Migration version: 20170813194852</text>
<text text-anchor="start" x="8" y="-291.6" font-family="Times,serif" font-size="13.00">Generated by RailRoady 1.5.3</text>
<text text-anchor="start" x="8" y="-277.6" font-family="Times,serif" font-size="13.00">http://railroady.prestonlee.com</text>
</g>
<!-- Cabin -->
<g id="node2" class="node"><title>Cabin</title>
<path fill="none" stroke="black" d="M244,-8C244,-8 464,-8 464,-8 470,-8 476,-14 476,-20 476,-20 476,-132 476,-132 476,-138 470,-144 464,-144 464,-144 244,-144 244,-144 238,-144 232,-138 232,-132 232,-132 232,-20 232,-20 232,-14 238,-8 244,-8"/>
<text text-anchor="middle" x="354" y="-128.8" font-family="Times,serif" font-size="14.00">Cabin</text>
<polyline fill="none" stroke="black" points="232,-121 476,-121 "/>
<text text-anchor="start" x="240" y="-105.8" font-family="Times,serif" font-size="14.00">id :bigint</text>
<text text-anchor="start" x="240" y="-90.8" font-family="Times,serif" font-size="14.00">room :character varying</text>
<text text-anchor="start" x="240" y="-75.8" font-family="Times,serif" font-size="14.00">level :character varying</text>
<text text-anchor="start" x="240" y="-60.8" font-family="Times,serif" font-size="14.00">is_available :boolean</text>
<text text-anchor="start" x="240" y="-45.8" font-family="Times,serif" font-size="14.00">ship_id :bigint</text>
<text text-anchor="start" x="240" y="-30.8" font-family="Times,serif" font-size="14.00">created_at :timestamp without time zone</text>
<text text-anchor="start" x="240" y="-15.8" font-family="Times,serif" font-size="14.00">updated_at :timestamp without time zone</text>
</g>
<!-- ApplicationRecord -->
<g id="node3" class="node"><title>ApplicationRecord</title>
<ellipse fill="none" stroke="black" cx="833" cy="-309" rx="77.0154" ry="18"/>
<text text-anchor="middle" x="833" y="-305.3" font-family="Times,serif" font-size="14.00">ApplicationRecord</text>
</g>
<!-- Ship -->
<g id="node4" class="node"><title>Ship</title>
<path fill="none" stroke="black" d="M244,-256C244,-256 464,-256 464,-256 470,-256 476,-262 476,-268 476,-268 476,-350 476,-350 476,-356 470,-362 464,-362 464,-362 244,-362 244,-362 238,-362 232,-356 232,-350 232,-350 232,-268 232,-268 232,-262 238,-256 244,-256"/>
<text text-anchor="middle" x="354" y="-346.8" font-family="Times,serif" font-size="14.00">Ship</text>
<polyline fill="none" stroke="black" points="232,-339 476,-339 "/>
<text text-anchor="start" x="240" y="-323.8" font-family="Times,serif" font-size="14.00">id :bigint</text>
<text text-anchor="start" x="240" y="-308.8" font-family="Times,serif" font-size="14.00">name :character varying</text>
<text text-anchor="start" x="240" y="-293.8" font-family="Times,serif" font-size="14.00">photo :character varying</text>
<text text-anchor="start" x="240" y="-278.8" font-family="Times,serif" font-size="14.00">created_at :timestamp without time zone</text>
<text text-anchor="start" x="240" y="-263.8" font-family="Times,serif" font-size="14.00">updated_at :timestamp without time zone</text>
</g>
<!-- Ship&#45;&gt;Cabin -->
<g id="edge1" class="edge"><title>Ship&#45;&gt;Cabin</title>
<path fill="none" stroke="#492125" d="M354,-247.558C354,-219.084 354,-184.784 354,-154.432"/>
<ellipse fill="none" stroke="#492125" cx="354" cy="-251.871" rx="4" ry="4"/>
<polygon fill="#492125" stroke="#492125" points="354,-154.305 358.5,-144.305 354,-149.305 354,-144.305 354,-144.305 354,-144.305 354,-149.305 349.5,-144.305 354,-154.305 354,-154.305"/>
</g>
<!-- Cruise -->
<g id="node7" class="node"><title>Cruise</title>
<path fill="none" stroke="black" d="M506,-0.5C506,-0.5 726,-0.5 726,-0.5 732,-0.5 738,-6.5 738,-12.5 738,-12.5 738,-139.5 738,-139.5 738,-145.5 732,-151.5 726,-151.5 726,-151.5 506,-151.5 506,-151.5 500,-151.5 494,-145.5 494,-139.5 494,-139.5 494,-12.5 494,-12.5 494,-6.5 500,-0.5 506,-0.5"/>
<text text-anchor="middle" x="616" y="-136.3" font-family="Times,serif" font-size="14.00">Cruise</text>
<polyline fill="none" stroke="black" points="494,-128.5 738,-128.5 "/>
<text text-anchor="start" x="502" y="-113.3" font-family="Times,serif" font-size="14.00">id :bigint</text>
<text text-anchor="start" x="502" y="-98.3" font-family="Times,serif" font-size="14.00">name :character varying</text>
<text text-anchor="start" x="502" y="-83.3" font-family="Times,serif" font-size="14.00">duration :integer</text>
<text text-anchor="start" x="502" y="-68.3" font-family="Times,serif" font-size="14.00">base_cost :numeric</text>
<text text-anchor="start" x="502" y="-53.3" font-family="Times,serif" font-size="14.00">dates :date</text>
<text text-anchor="start" x="502" y="-38.3" font-family="Times,serif" font-size="14.00">ship_id :bigint</text>
<text text-anchor="start" x="502" y="-23.3" font-family="Times,serif" font-size="14.00">created_at :timestamp without time zone</text>
<text text-anchor="start" x="502" y="-8.3" font-family="Times,serif" font-size="14.00">updated_at :timestamp without time zone</text>
</g>
<!-- Ship&#45;&gt;Cruise -->
<g id="edge2" class="edge"><title>Ship&#45;&gt;Cruise</title>
<path fill="none" stroke="#0db69d" d="M416.016,-250.286C437.678,-230.37 462.261,-208.035 485,-188 496.008,-178.301 507.626,-168.228 519.212,-158.284"/>
<ellipse fill="none" stroke="#0db69d" cx="412.931" cy="-253.127" rx="4.00002" ry="4.00002"/>
<polygon fill="#0db69d" stroke="#0db69d" points="519.219,-158.278 529.741,-155.191 523.017,-155.025 526.814,-151.773 526.814,-151.773 526.814,-151.773 523.017,-155.025 523.887,-148.355 519.219,-158.278 519.219,-158.278"/>
</g>
<!-- City -->
<g id="node5" class="node"><title>City</title>
<path fill="none" stroke="black" d="M506,-248.5C506,-248.5 726,-248.5 726,-248.5 732,-248.5 738,-254.5 738,-260.5 738,-260.5 738,-357.5 738,-357.5 738,-363.5 732,-369.5 726,-369.5 726,-369.5 506,-369.5 506,-369.5 500,-369.5 494,-363.5 494,-357.5 494,-357.5 494,-260.5 494,-260.5 494,-254.5 500,-248.5 506,-248.5"/>
<text text-anchor="middle" x="616" y="-354.3" font-family="Times,serif" font-size="14.00">City</text>
<polyline fill="none" stroke="black" points="494,-346.5 738,-346.5 "/>
<text text-anchor="start" x="502" y="-331.3" font-family="Times,serif" font-size="14.00">id :bigint</text>
<text text-anchor="start" x="502" y="-316.3" font-family="Times,serif" font-size="14.00">name :character varying</text>
<text text-anchor="start" x="502" y="-301.3" font-family="Times,serif" font-size="14.00">country :character varying</text>
<text text-anchor="start" x="502" y="-286.3" font-family="Times,serif" font-size="14.00">photo :character varying</text>
<text text-anchor="start" x="502" y="-271.3" font-family="Times,serif" font-size="14.00">created_at :timestamp without time zone</text>
<text text-anchor="start" x="502" y="-256.3" font-family="Times,serif" font-size="14.00">updated_at :timestamp without time zone</text>
</g>
<!-- City&#45;&gt;Cruise -->
<g id="edge3" class="edge"><title>City&#45;&gt;Cruise</title>
<path fill="none" stroke="#7ab7f9" d="M616,-237.988C616,-214.058 616,-187.027 616,-162.043"/>
<polygon fill="#7ab7f9" stroke="#7ab7f9" points="616,-238.211 611.5,-248.211 616,-243.211 616,-248.211 616,-248.211 616,-248.211 616,-243.211 620.5,-248.211 616,-238.211 616,-238.211"/>
<polygon fill="#7ab7f9" stroke="#7ab7f9" points="616,-161.847 620.5,-151.847 616,-156.847 616,-151.847 616,-151.847 616,-151.847 616,-156.847 611.5,-151.847 616,-161.847 616,-161.847"/>
</g>
<!-- User -->
<g id="node6" class="node"><title>User</title>
<path fill="none" stroke="black" d="M940.5,-188.5C940.5,-188.5 1229.5,-188.5 1229.5,-188.5 1235.5,-188.5 1241.5,-194.5 1241.5,-200.5 1241.5,-200.5 1241.5,-417.5 1241.5,-417.5 1241.5,-423.5 1235.5,-429.5 1229.5,-429.5 1229.5,-429.5 940.5,-429.5 940.5,-429.5 934.5,-429.5 928.5,-423.5 928.5,-417.5 928.5,-417.5 928.5,-200.5 928.5,-200.5 928.5,-194.5 934.5,-188.5 940.5,-188.5"/>
<text text-anchor="middle" x="1085" y="-414.3" font-family="Times,serif" font-size="14.00">User</text>
<polyline fill="none" stroke="black" points="928.5,-406.5 1241.5,-406.5 "/>
<text text-anchor="start" x="936.5" y="-391.3" font-family="Times,serif" font-size="14.00">id :bigint</text>
<text text-anchor="start" x="936.5" y="-376.3" font-family="Times,serif" font-size="14.00">email :character varying</text>
<text text-anchor="start" x="936.5" y="-361.3" font-family="Times,serif" font-size="14.00">encrypted_password :character varying</text>
<text text-anchor="start" x="936.5" y="-346.3" font-family="Times,serif" font-size="14.00">reset_password_token :character varying</text>
<text text-anchor="start" x="936.5" y="-331.3" font-family="Times,serif" font-size="14.00">reset_password_sent_at :timestamp without time zone</text>
<text text-anchor="start" x="936.5" y="-316.3" font-family="Times,serif" font-size="14.00">remember_created_at :timestamp without time zone</text>
<text text-anchor="start" x="936.5" y="-301.3" font-family="Times,serif" font-size="14.00">sign_in_count :integer</text>
<text text-anchor="start" x="936.5" y="-286.3" font-family="Times,serif" font-size="14.00">current_sign_in_at :timestamp without time zone</text>
<text text-anchor="start" x="936.5" y="-271.3" font-family="Times,serif" font-size="14.00">last_sign_in_at :timestamp without time zone</text>
<text text-anchor="start" x="936.5" y="-256.3" font-family="Times,serif" font-size="14.00">current_sign_in_ip :inet</text>
<text text-anchor="start" x="936.5" y="-241.3" font-family="Times,serif" font-size="14.00">last_sign_in_ip :inet</text>
<text text-anchor="start" x="936.5" y="-226.3" font-family="Times,serif" font-size="14.00">created_at :timestamp without time zone</text>
<text text-anchor="start" x="936.5" y="-211.3" font-family="Times,serif" font-size="14.00">updated_at :timestamp without time zone</text>
<text text-anchor="start" x="936.5" y="-196.3" font-family="Times,serif" font-size="14.00">role :character varying</text>
</g>
</g>
</svg>
