<?xml version="1.0" encoding="UTF-8" standalone="no"?>
<!DOCTYPE svg PUBLIC "-//W3C//DTD SVG 1.1//EN"
 "http://www.w3.org/Graphics/SVG/1.1/DTD/svg11.dtd">
<!-- Generated by graphviz version 2.36.0 (20140111.2315)
 -->
<!-- Title: controllers_diagram Pages: 1 -->
<svg width="412pt" height="417pt"
 viewBox="0.00 0.00 412.00 417.00" xmlns="http://www.w3.org/2000/svg" xmlns:xlink="http://www.w3.org/1999/xlink">
<g id="graph0" class="graph" transform="scale(1 1) rotate(0) translate(4 413)">
<title>controllers_diagram</title>
<polygon fill="none" stroke="none" points="-4,4 -4,-413 408,-413 408,4 -4,4"/>
<!-- _diagram_info -->
<g id="node1" class="node"><title>_diagram_info</title>
<text text-anchor="start" x="68" y="-198.6" font-family="Times,serif" font-size="13.00">Controllers diagram</text>
<text text-anchor="start" x="68" y="-184.6" font-family="Times,serif" font-size="13.00">Date: Aug 13 2017 &#45; 20:36</text>
<text text-anchor="start" x="68" y="-170.6" font-family="Times,serif" font-size="13.00">Migration version: 20170813194852</text>
<text text-anchor="start" x="68" y="-156.6" font-family="Times,serif" font-size="13.00">Generated by RailRoady 1.5.3</text>
<text text-anchor="start" x="68" y="-142.6" font-family="Times,serif" font-size="13.00">http://railroady.prestonlee.com</text>
</g>
<!-- ApplicationController -->
<g id="node2" class="node"><title>ApplicationController</title>
<path fill="none" stroke="black" d="M252,-240.5C252,-240.5 364,-240.5 364,-240.5 370,-240.5 376,-246.5 376,-252.5 376,-252.5 376,-367.5 376,-367.5 376,-373.5 370,-379.5 364,-379.5 364,-379.5 252,-379.5 252,-379.5 246,-379.5 240,-373.5 240,-367.5 240,-367.5 240,-252.5 240,-252.5 240,-246.5 246,-240.5 252,-240.5"/>
<text text-anchor="middle" x="308" y="-364.3" font-family="Times,serif" font-size="14.00">ApplicationController</text>
<polyline fill="none" stroke="black" points="240,-356.5 376,-356.5 "/>
<polyline fill="none" stroke="black" points="240,-332.5 376,-332.5 "/>
<polyline fill="none" stroke="black" points="240,-308.5 376,-308.5 "/>
<text text-anchor="start" x="248" y="-293.3" font-family="Times,serif" font-size="14.00">_layout</text>
<text text-anchor="start" x="248" y="-278.3" font-family="Times,serif" font-size="14.00">auth_admin</text>
<text text-anchor="start" x="248" y="-263.3" font-family="Times,serif" font-size="14.00">auth_user</text>
<text text-anchor="start" x="248" y="-248.3" font-family="Times,serif" font-size="14.00">get_user</text>
</g>
<!-- ShipsController -->
<g id="node3" class="node"><title>ShipsController</title>
<path fill="none" stroke="black" d="M117,-255.5C117,-255.5 195,-255.5 195,-255.5 201,-255.5 207,-261.5 207,-267.5 207,-267.5 207,-396.5 207,-396.5 207,-402.5 201,-408.5 195,-408.5 195,-408.5 117,-408.5 117,-408.5 111,-408.5 105,-402.5 105,-396.5 105,-396.5 105,-267.5 105,-267.5 105,-261.5 111,-255.5 117,-255.5"/>
<text text-anchor="middle" x="156" y="-393.3" font-family="Times,serif" font-size="14.00">ShipsController</text>
<polyline fill="none" stroke="black" points="105,-385.5 207,-385.5 "/>
<text text-anchor="start" x="113" y="-370.3" font-family="Times,serif" font-size="14.00">create</text>
<text text-anchor="start" x="113" y="-355.3" font-family="Times,serif" font-size="14.00">destroy</text>
<text text-anchor="start" x="113" y="-340.3" font-family="Times,serif" font-size="14.00">index</text>
<text text-anchor="start" x="113" y="-325.3" font-family="Times,serif" font-size="14.00">new</text>
<text text-anchor="start" x="113" y="-310.3" font-family="Times,serif" font-size="14.00">show</text>
<polyline fill="none" stroke="black" points="105,-302.5 207,-302.5 "/>
<polyline fill="none" stroke="black" points="105,-278.5 207,-278.5 "/>
<text text-anchor="start" x="113" y="-263.3" font-family="Times,serif" font-size="14.00">_layout</text>
</g>
<!-- HomeController -->
<g id="node4" class="node"><title>HomeController</title>
<path fill="none" stroke="black" d="M147,-15.5C147,-15.5 229,-15.5 229,-15.5 235,-15.5 241,-21.5 241,-27.5 241,-27.5 241,-96.5 241,-96.5 241,-102.5 235,-108.5 229,-108.5 229,-108.5 147,-108.5 147,-108.5 141,-108.5 135,-102.5 135,-96.5 135,-96.5 135,-27.5 135,-27.5 135,-21.5 141,-15.5 147,-15.5"/>
<text text-anchor="middle" x="188" y="-93.3" font-family="Times,serif" font-size="14.00">HomeController</text>
<polyline fill="none" stroke="black" points="135,-85.5 241,-85.5 "/>
<text text-anchor="start" x="143" y="-70.3" font-family="Times,serif" font-size="14.00">index</text>
<polyline fill="none" stroke="black" points="135,-62.5 241,-62.5 "/>
<polyline fill="none" stroke="black" points="135,-38.5 241,-38.5 "/>
<text text-anchor="start" x="143" y="-23.3" font-family="Times,serif" font-size="14.00">_layout</text>
</g>
<!-- CabinsController -->
<g id="node5" class="node"><title>CabinsController</title>
<path fill="none" stroke="black" d="M12,-0.5C12,-0.5 98,-0.5 98,-0.5 104,-0.5 110,-6.5 110,-12.5 110,-12.5 110,-96.5 110,-96.5 110,-102.5 104,-108.5 98,-108.5 98,-108.5 12,-108.5 12,-108.5 6,-108.5 0,-102.5 0,-96.5 0,-96.5 0,-12.5 0,-12.5 0,-6.5 6,-0.5 12,-0.5"/>
<text text-anchor="middle" x="55" y="-93.3" font-family="Times,serif" font-size="14.00">CabinsController</text>
<polyline fill="none" stroke="black" points="0,-85.5 110,-85.5 "/>
<text text-anchor="start" x="8" y="-70.3" font-family="Times,serif" font-size="14.00">create</text>
<text text-anchor="start" x="8" y="-55.3" font-family="Times,serif" font-size="14.00">new</text>
<polyline fill="none" stroke="black" points="0,-47.5 110,-47.5 "/>
<polyline fill="none" stroke="black" points="0,-23.5 110,-23.5 "/>
<text text-anchor="start" x="8" y="-8.3" font-family="Times,serif" font-size="14.00">_layout</text>
</g>
<!-- CitiesController -->
<g id="node6" class="node"><title>CitiesController</title>
<path fill="none" stroke="black" d="M312,-60.5C312,-60.5 392,-60.5 392,-60.5 398,-60.5 404,-66.5 404,-72.5 404,-72.5 404,-186.5 404,-186.5 404,-192.5 398,-198.5 392,-198.5 392,-198.5 312,-198.5 312,-198.5 306,-198.5 300,-192.5 300,-186.5 300,-186.5 300,-72.5 300,-72.5 300,-66.5 306,-60.5 312,-60.5"/>
<text text-anchor="middle" x="352" y="-183.3" font-family="Times,serif" font-size="14.00">CitiesController</text>
<polyline fill="none" stroke="black" points="300,-175.5 404,-175.5 "/>
<text text-anchor="start" x="308" y="-160.3" font-family="Times,serif" font-size="14.00">create</text>
<text text-anchor="start" x="308" y="-145.3" font-family="Times,serif" font-size="14.00">destroy</text>
<text text-anchor="start" x="308" y="-130.3" font-family="Times,serif" font-size="14.00">index</text>
<text text-anchor="start" x="308" y="-115.3" font-family="Times,serif" font-size="14.00">new</text>
<polyline fill="none" stroke="black" points="300,-107.5 404,-107.5 "/>
<polyline fill="none" stroke="black" points="300,-83.5 404,-83.5 "/>
<text text-anchor="start" x="308" y="-68.3" font-family="Times,serif" font-size="14.00">_layout</text>
</g>
</g>
</svg>
