<?xml version="1.0" encoding="UTF-8" standalone="no"?>
<!DOCTYPE svg PUBLIC "-//W3C//DTD SVG 1.1//EN"
 "http://www.w3.org/Graphics/SVG/1.1/DTD/svg11.dtd">
<!-- Generated by graphviz version 2.36.0 (20140111.2315)
 -->
<!-- Title: models_diagram Pages: 1 -->
<svg width="617pt" height="158pt"
 viewBox="0.00 0.00 617.00 158.00" xmlns="http://www.w3.org/2000/svg" xmlns:xlink="http://www.w3.org/1999/xlink">
<g id="graph0" class="graph" transform="scale(1 1) rotate(0) translate(4 154)">
<title>models_diagram</title>
<polygon fill="none" stroke="none" points="-4,4 -4,-154 613,-154 613,4 -4,4"/>
<!-- _diagram_info -->
<g id="node1" class="node"><title>_diagram_info</title>
<text text-anchor="start" x="8" y="-135.6" font-family="Times,serif" font-size="13.00">Models diagram</text>
<text text-anchor="start" x="8" y="-121.6" font-family="Times,serif" font-size="13.00">Date: Aug 13 2017 &#45; 20:36</text>
<text text-anchor="start" x="8" y="-107.6" font-family="Times,serif" font-size="13.00">Migration version: 20170813194852</text>
<text text-anchor="start" x="8" y="-93.6" font-family="Times,serif" font-size="13.00">Generated by RailRoady 1.5.3</text>
<text text-anchor="start" x="8" y="-79.6" font-family="Times,serif" font-size="13.00">http://railroady.prestonlee.com</text>
</g>
<!-- Cabin -->
<g id="node2" class="node"><title>Cabin</title>
<ellipse fill="none" stroke="black" cx="253" cy="-18" rx="31.2735" ry="18"/>
<text text-anchor="middle" x="253" y="-14.3" font-family="Times,serif" font-size="14.00">Cabin</text>
</g>
<!-- ApplicationRecord -->
<g id="node3" class="node"><title>ApplicationRecord</title>
<ellipse fill="none" stroke="black" cx="459" cy="-111" rx="77.0154" ry="18"/>
<text text-anchor="middle" x="459" y="-107.3" font-family="Times,serif" font-size="14.00">ApplicationRecord</text>
</g>
<!-- Ship -->
<g id="node4" class="node"><title>Ship</title>
<ellipse fill="none" stroke="black" cx="259" cy="-111" rx="27" ry="18"/>
<text text-anchor="middle" x="259" y="-107.3" font-family="Times,serif" font-size="14.00">Ship</text>
</g>
<!-- Ship&#45;&gt;Cabin -->
<g id="edge1" class="edge"><title>Ship&#45;&gt;Cabin</title>
<path fill="none" stroke="#3e4867" d="M257.334,-84.7285C256.542,-72.7246 255.595,-58.3622 254.789,-46.1291"/>
<ellipse fill="none" stroke="#3e4867" cx="257.608" cy="-88.8923" rx="4" ry="4"/>
<polygon fill="#3e4867" stroke="#3e4867" points="254.781,-46.018 258.614,-35.7436 254.452,-41.0288 254.123,-36.0397 254.123,-36.0397 254.123,-36.0397 254.452,-41.0288 249.633,-36.3358 254.781,-46.018 254.781,-46.018"/>
</g>
<!-- Cruise -->
<g id="node7" class="node"><title>Cruise</title>
<ellipse fill="none" stroke="black" cx="337" cy="-18" rx="33.1991" ry="18"/>
<text text-anchor="middle" x="337" y="-14.3" font-family="Times,serif" font-size="14.00">Cruise</text>
</g>
<!-- Ship&#45;&gt;Cruise -->
<g id="edge2" class="edge"><title>Ship&#45;&gt;Cruise</title>
<path fill="none" stroke="#2a5327" d="M277.229,-88.7331C289.089,-74.8965 304.567,-56.8383 316.801,-42.5654"/>
<ellipse fill="none" stroke="#2a5327" cx="274.483" cy="-91.9362" rx="4.00002" ry="4.00002"/>
<polygon fill="#2a5327" stroke="#2a5327" points="317.07,-42.2522 326.994,-37.5882 320.323,-38.4559 323.577,-34.6596 323.577,-34.6596 323.577,-34.6596 320.323,-38.4559 320.161,-31.7311 317.07,-42.2522 317.07,-42.2522"/>
</g>
<!-- City -->
<g id="node5" class="node"><title>City</title>
<ellipse fill="none" stroke="black" cx="337" cy="-111" rx="27" ry="18"/>
<text text-anchor="middle" x="337" y="-107.3" font-family="Times,serif" font-size="14.00">City</text>
</g>
<!-- City&#45;&gt;Cruise -->
<g id="edge3" class="edge"><title>City&#45;&gt;Cruise</title>
<path fill="none" stroke="#ad5d01" d="M337,-82.5485C337,-71.0829 337,-57.7923 337,-46.3387"/>
<polygon fill="#ad5d01" stroke="#ad5d01" points="337,-82.8836 332.5,-92.8836 337,-87.8836 337,-92.8836 337,-92.8836 337,-92.8836 337,-87.8836 341.5,-92.8836 337,-82.8836 337,-82.8836"/>
<polygon fill="#ad5d01" stroke="#ad5d01" points="337,-46.0397 341.5,-36.0396 337,-41.0397 337,-36.0397 337,-36.0397 337,-36.0397 337,-41.0397 332.5,-36.0397 337,-46.0397 337,-46.0397"/>
</g>
<!-- User -->
<g id="node6" class="node"><title>User</title>
<ellipse fill="none" stroke="black" cx="582" cy="-111" rx="26.949" ry="18"/>
<text text-anchor="middle" x="582" y="-107.3" font-family="Times,serif" font-size="14.00">User</text>
</g>
</g>
</svg>
